<svg id="svg" version="1.1" xmlns="http://www.w3.org/2000/svg" xmlns:xlink="http://www.w3.org/1999/xlink" width="400" height="400" viewBox="0, 0, 400,400"><g id="svgg"><path id="path0" d="M213.026 0.437 C 213.303 0.880,213.769 271.324,213.506 278.800 C 213.471 279.790,213.459 281.320,213.479 282.200 C 213.499 283.080,213.625 309.090,213.759 340.000 C 214.017 399.317,214.009 398.870,214.749 399.116 C 216.431 399.677,235.159 396.874,245.177 394.562 C 252.384 392.899,253.445 392.483,253.288 391.383 C 253.226 390.952,253.089 365.220,252.982 334.200 C 252.876 303.180,252.777 277.395,252.763 276.900 C 252.748 276.405,252.746 274.245,252.757 272.100 C 252.768 269.955,252.761 254.547,252.743 237.860 L 252.708 207.521 254.654 206.405 C 255.724 205.791,257.410 204.594,258.400 203.745 C 259.390 202.895,261.086 201.754,262.168 201.208 C 263.251 200.663,265.051 199.383,266.168 198.363 C 267.286 197.344,269.148 196.030,270.307 195.444 C 271.466 194.859,273.374 193.510,274.548 192.447 C 275.721 191.385,277.528 190.093,278.563 189.576 C 279.598 189.059,281.470 187.709,282.723 186.576 C 283.975 185.443,285.797 184.110,286.771 183.614 C 287.745 183.118,289.455 181.867,290.571 180.835 C 291.687 179.802,293.625 178.350,294.878 177.608 C 296.131 176.865,297.931 175.542,298.878 174.669 C 299.825 173.795,301.590 172.490,302.800 171.770 C 304.010 171.050,305.990 169.577,307.200 168.498 C 308.410 167.419,310.390 165.903,311.600 165.129 C 312.810 164.355,314.557 162.982,315.483 162.078 C 316.409 161.173,317.931 160.043,318.865 159.567 C 319.800 159.090,321.562 157.764,322.782 156.621 C 324.002 155.477,325.900 154.028,327.000 153.399 C 328.100 152.770,329.990 151.330,331.200 150.199 C 332.410 149.068,334.256 147.652,335.302 147.053 C 336.349 146.454,337.969 145.232,338.902 144.338 C 339.836 143.444,341.590 142.084,342.800 141.317 C 344.010 140.549,345.900 139.067,347.000 138.023 C 348.100 136.979,349.849 135.643,350.888 135.053 C 351.926 134.463,353.816 133.021,355.088 131.847 C 356.359 130.674,358.025 129.393,358.788 129.001 C 359.552 128.609,361.172 127.355,362.388 126.215 C 363.605 125.075,365.500 123.628,366.600 122.999 C 367.700 122.370,369.590 120.931,370.800 119.800 C 372.010 118.669,373.701 117.342,374.558 116.851 C 377.124 115.381,379.600 113.158,379.600 112.325 C 379.600 110.146,369.534 93.035,362.056 82.502 L 359.430 78.803 358.015 80.138 C 357.237 80.872,355.751 81.955,354.712 82.546 C 353.674 83.136,351.784 84.579,350.512 85.753 C 349.241 86.926,347.575 88.207,346.812 88.599 C 346.048 88.991,344.428 90.245,343.212 91.385 C 341.995 92.525,340.100 93.972,339.000 94.601 C 337.900 95.230,336.010 96.670,334.800 97.801 C 333.590 98.932,331.790 100.323,330.800 100.892 C 329.810 101.460,328.190 102.682,327.200 103.606 C 326.210 104.529,324.410 105.914,323.200 106.682 C 321.990 107.451,320.100 108.933,319.000 109.977 C 317.900 111.021,316.151 112.357,315.112 112.947 C 314.074 113.537,312.184 114.970,310.912 116.133 C 309.641 117.295,307.782 118.717,306.782 119.292 C 305.782 119.867,304.252 121.076,303.382 121.979 C 302.512 122.883,300.824 124.175,299.632 124.853 C 298.439 125.530,296.549 126.933,295.432 127.970 C 294.314 129.008,292.586 130.322,291.592 130.891 C 290.598 131.460,288.656 132.932,287.278 134.162 C 285.900 135.392,284.082 136.750,283.239 137.180 C 282.396 137.610,280.737 138.841,279.553 139.916 C 278.369 140.990,276.533 142.373,275.474 142.988 C 274.415 143.603,272.615 144.948,271.474 145.976 C 270.333 147.004,268.503 148.362,267.406 148.995 C 266.309 149.627,264.599 150.889,263.606 151.800 C 262.613 152.710,260.900 153.962,259.800 154.582 C 258.700 155.202,256.756 156.605,255.479 157.700 C 254.203 158.795,253.052 159.586,252.923 159.457 C 252.794 159.328,252.692 124.847,252.695 82.833 L 252.701 6.443 246.851 5.040 C 233.073 1.737,212.052 -1.124,213.026 0.437 M163.800 2.640 C 155.883 4.124,144.562 7.042,137.000 9.547 L 130.200 11.800 130.000 113.000 C 129.890 168.660,129.676 214.390,129.524 214.622 C 129.282 214.994,128.890 217.550,127.612 227.102 C 126.739 233.626,123.275 245.573,121.090 249.600 C 117.121 256.911,113.192 262.528,107.776 268.632 C 106.198 270.409,104.578 272.389,104.175 273.032 C 102.349 275.942,97.211 280.214,70.700 300.865 C 55.135 312.990,42.406 323.020,42.414 323.155 C 42.437 323.563,48.167 330.271,53.330 335.935 C 58.095 341.163,68.527 351.064,69.985 351.744 C 71.042 352.236,121.412 313.069,126.159 308.063 C 127.942 306.183,131.810 302.205,134.756 299.223 C 137.702 296.240,140.521 293.153,141.021 292.363 C 141.521 291.573,142.846 289.880,143.965 288.601 C 145.084 287.322,146.000 286.129,146.000 285.951 C 146.000 285.773,147.151 284.348,148.559 282.786 C 150.026 281.156,151.653 278.805,152.372 277.272 C 153.062 275.803,153.976 273.970,154.403 273.200 C 156.292 269.793,158.851 264.240,159.068 263.074 C 159.198 262.373,159.640 261.240,160.050 260.556 C 161.120 258.772,161.978 256.216,162.587 253.000 C 162.878 251.460,163.511 249.127,163.991 247.816 C 164.472 246.505,165.026 243.895,165.222 242.016 C 165.418 240.137,165.763 237.630,165.989 236.445 C 166.215 235.260,166.400 233.279,166.400 232.043 C 166.400 230.806,166.586 229.166,166.813 228.397 C 167.209 227.054,167.471 225.398,168.458 218.000 C 168.707 216.130,168.955 212.620,169.008 210.200 C 169.061 207.780,169.331 203.640,169.608 201.000 C 170.529 192.230,170.626 1.590,169.709 1.633 C 169.319 1.651,166.660 2.104,163.800 2.640 " stroke="none" fill="#FFFFFF" fill-rule="evenodd"></path><path id="path1" d="M186.400 0.270 C 183.212 0.502,172.792 1.622,171.587 1.863 L 170.419 2.096 170.265 99.148 C 170.148 173.478,169.994 197.324,169.608 201.000 C 169.331 203.640,169.061 207.780,169.008 210.200 C 168.955 212.620,168.707 216.130,168.458 218.000 C 167.471 225.398,167.209 227.054,166.813 228.397 C 166.586 229.166,166.400 230.806,166.400 232.043 C 166.400 233.279,166.215 235.260,165.989 236.445 C 165.763 237.630,165.418 240.137,165.222 242.016 C 165.026 243.895,164.472 246.505,163.991 247.816 C 163.511 249.127,162.878 251.460,162.587 253.000 C 161.978 256.216,161.120 258.772,160.050 260.556 C 159.640 261.240,159.198 262.373,159.068 263.074 C 158.851 264.240,156.292 269.793,154.403 273.200 C 153.976 273.970,153.062 275.803,152.372 277.272 C 151.653 278.805,150.026 281.156,148.559 282.786 C 147.151 284.348,146.000 285.773,146.000 285.951 C 146.000 286.129,145.084 287.322,143.965 288.601 C 142.846 289.880,141.521 291.573,141.021 292.363 C 140.521 293.153,137.702 296.240,134.756 299.223 C 131.810 302.205,127.940 306.185,126.155 308.068 C 123.786 310.565,115.812 317.010,96.656 331.911 L 70.402 352.333 73.501 354.896 C 101.902 378.387,138.058 393.973,174.800 398.562 C 188.194 400.235,217.199 400.683,214.766 399.179 C 214.004 398.708,214.018 399.518,213.759 340.000 C 213.625 309.090,213.499 283.080,213.479 282.200 C 213.459 281.320,213.471 279.790,213.506 278.800 C 213.743 272.065,213.313 0.897,213.065 0.500 C 212.774 0.033,192.120 -0.145,186.400 0.270 M252.775 6.900 C 252.606 7.571,252.754 159.287,252.924 159.457 C 253.053 159.586,254.203 158.795,255.479 157.700 C 256.756 156.605,258.700 155.202,259.800 154.582 C 260.900 153.962,262.613 152.710,263.606 151.800 C 264.599 150.889,266.309 149.627,267.406 148.995 C 268.503 148.362,270.333 147.004,271.474 145.976 C 272.615 144.948,274.415 143.603,275.474 142.988 C 276.533 142.373,278.369 140.990,279.553 139.916 C 280.737 138.841,282.396 137.610,283.239 137.180 C 284.082 136.750,285.900 135.392,287.278 134.162 C 288.656 132.932,290.598 131.460,291.592 130.891 C 292.586 130.322,294.314 129.008,295.432 127.970 C 296.549 126.933,298.439 125.530,299.632 124.853 C 300.824 124.175,302.512 122.883,303.382 121.979 C 304.252 121.076,305.782 119.867,306.782 119.292 C 307.782 118.717,309.641 117.295,310.912 116.133 C 312.184 114.970,314.074 113.537,315.112 112.947 C 316.151 112.357,317.900 111.021,319.000 109.977 C 320.100 108.933,321.990 107.451,323.200 106.682 C 324.410 105.914,326.210 104.529,327.200 103.606 C 328.190 102.682,329.810 101.460,330.800 100.892 C 331.790 100.323,333.590 98.932,334.800 97.801 C 336.010 96.670,337.900 95.230,339.000 94.601 C 340.100 93.972,341.995 92.525,343.212 91.385 C 344.428 90.245,346.048 88.991,346.812 88.599 C 347.575 88.207,349.257 86.911,350.549 85.719 C 351.841 84.527,353.825 83.029,354.957 82.389 C 356.090 81.750,357.612 80.613,358.340 79.862 L 359.662 78.498 356.975 75.149 C 331.604 43.534,297.463 20.279,259.259 8.590 C 253.714 6.894,252.834 6.664,252.775 6.900 M125.200 14.398 C 7.430 62.606,-36.481 205.880,34.113 311.599 C 36.742 315.536,42.113 322.802,42.386 322.792 C 42.504 322.787,55.110 313.051,70.400 301.156 C 96.290 281.014,102.306 276.004,104.174 273.032 C 104.578 272.389,106.198 270.409,107.776 268.632 C 113.192 262.528,117.121 256.911,121.090 249.600 C 123.276 245.573,126.739 233.624,127.612 227.102 C 127.796 225.726,128.216 222.710,128.545 220.400 C 128.875 218.090,129.343 214.760,129.585 213.000 C 129.899 210.721,129.994 181.420,129.913 111.157 L 129.800 12.515 125.200 14.398 M379.600 112.518 C 379.600 113.184,376.881 115.520,374.558 116.851 C 373.701 117.342,372.010 118.669,370.800 119.800 C 369.590 120.931,367.700 122.370,366.600 122.999 C 365.500 123.628,363.605 125.075,362.388 126.215 C 361.172 127.355,359.552 128.609,358.788 129.001 C 358.025 129.393,356.359 130.674,355.088 131.847 C 353.816 133.021,351.926 134.463,350.888 135.053 C 349.849 135.643,348.100 136.979,347.000 138.023 C 345.900 139.067,344.010 140.549,342.800 141.317 C 341.590 142.084,339.836 143.444,338.902 144.338 C 337.969 145.232,336.349 146.454,335.302 147.053 C 334.256 147.652,332.410 149.068,331.200 150.199 C 329.990 151.330,328.100 152.770,327.000 153.399 C 325.900 154.028,324.002 155.477,322.782 156.621 C 321.562 157.764,319.800 159.090,318.865 159.567 C 317.931 160.043,316.409 161.173,315.483 162.078 C 314.557 162.982,312.810 164.355,311.600 165.129 C 310.390 165.903,308.410 167.419,307.200 168.498 C 305.990 169.577,304.010 171.050,302.800 171.770 C 301.590 172.490,299.825 173.795,298.878 174.669 C 297.931 175.542,296.131 176.865,294.878 177.608 C 293.625 178.350,291.687 179.802,290.571 180.835 C 289.455 181.867,287.745 183.118,286.771 183.614 C 285.797 184.110,283.975 185.443,282.723 186.576 C 281.470 187.709,279.598 189.059,278.563 189.576 C 277.528 190.093,275.721 191.385,274.548 192.447 C 273.374 193.510,271.466 194.859,270.307 195.444 C 269.148 196.030,267.286 197.344,266.168 198.363 C 265.051 199.383,263.251 200.663,262.168 201.208 C 261.086 201.754,259.390 202.895,258.400 203.745 C 257.410 204.594,255.724 205.791,254.654 206.405 L 252.708 207.521 252.743 237.860 C 252.761 254.547,252.768 269.955,252.757 272.100 C 252.746 274.245,252.748 276.405,252.763 276.900 C 252.777 277.395,252.858 303.205,252.943 334.255 C 253.028 365.306,253.226 390.919,253.383 391.173 C 253.540 391.427,253.448 391.902,253.177 392.227 C 252.235 393.362,253.168 393.255,258.666 391.596 C 330.033 370.058,384.253 309.226,397.353 236.000 C 399.739 222.662,399.800 221.768,399.800 200.000 C 399.800 175.760,399.119 169.435,394.534 151.060 C 390.557 135.125,379.600 106.847,379.600 112.518 " stroke="none" fill="#2C5F2D" fill-rule="evenodd"></path></g></svg>